<svg width="306" height="721" viewBox="0 0 306 721" fill="none" xmlns="http://www.w3.org/2000/svg">
<path d="M68.5 195.5V130.5C65.7 130.5 64 133.833 63.5 135.5L41.5 195.5H68.5Z" fill="white" stroke="white"/>
<path d="M69.5 195.5V130.5C72.3 130.5 74 133.833 74.5 135.5L96.5 195.5H69.5Z" fill="#E5E2DD" stroke="#E5E2DD"/>
<path d="M69 200H97V240H69V200Z" fill="#E5E2DD"/>
<path d="M41 200H69V240H41V200Z" fill="white"/>
<path d="M69 244H97V284H69V244Z" fill="#E5E2DD"/>
<path d="M41 244H69V284H41V244Z" fill="white"/>
<path d="M69 288H97V328H69V288Z" fill="#E5E2DD"/>
<path d="M41 288H69V328H41V288Z" fill="white"/>
<path d="M69 332H97V372H69V332Z" fill="#E5E2DD"/>
<path d="M41 332H69V372H41V332Z" fill="white"/>
<path d="M69 376H97V416H69V376Z" fill="#E5E2DD"/>
<path d="M69 420H97V460H69V420Z" fill="#E5E2DD"/>
<path d="M69 464H97V620H69V464Z" fill="#E5E2DD"/>
<path d="M69 623H97V632H69V623Z" fill="#E5E2DD"/>
<path d="M69 636H97V644H69V636Z" fill="#E5E2DD"/>
<path d="M41 376H69V416H41V376Z" fill="white"/>
<path d="M41 420H69V460H41V420Z" fill="white"/>
<path d="M41 464H69V620H41V464Z" fill="white"/>
<path d="M41 624H69V632H41V624Z" fill="white"/>
<path d="M41 636H69V644H41V636Z" fill="white"/>
<path d="M41 196H69V200H41V196Z" fill="#E2DEDD"/>
<path d="M69 196H97V200H69V196Z" fill="#C1BCB8"/>
<path d="M41 328H69V332H41V328Z" fill="#E2DEDD"/>
<path d="M69 328H97V332H69V328Z" fill="#C1BCB8"/>
<path d="M41 240H69V244H41V240Z" fill="#453E40"/>
<path d="M69 240H97V244H69V240Z" fill="#393335"/>
<path d="M41 284H69V288H41V284Z" fill="#453E40"/>
<path d="M69 284H97V288H69V284Z" fill="#393335"/>
<path d="M41 372H69V376H41V372Z" fill="#453E40"/>
<path d="M69 372H97V376H69V372Z" fill="#393335"/>
<path d="M41 416H69V420H41V416Z" fill="#E2DEDD"/>
<path d="M69 416H97V420H69V416Z" fill="#C1BCB8"/>
<path d="M41 460H69V464H41V460Z" fill="#453E40"/>
<path d="M69 460H97V464H69V460Z" fill="#393335"/>
<path d="M41 620H69V624H41V620Z" fill="#A83F3A"/>
<path d="M69 620H97V624H69V620Z" fill="#962A2F"/>
<path d="M41 632H69V636H41V632Z" fill="#A83F3A"/>
<path d="M41 644H69V648H41V644Z" fill="#A83F3A"/>
<path d="M69 632H97V636H69V632Z" fill="#962A2F"/>
<path d="M69 644H97V648H69V644Z" fill="#962A2F"/>
<path d="M41 660H69V664H41V660Z" fill="#A83F3A"/>
<path d="M69 660H97V664H69V660Z" fill="#962A2F"/>
<rect x="41" y="648" width="56" height="48" fill="white"/>
<path d="M41.5 665.5L33.5 695.5H41.5V665.5Z" fill="white" stroke="white"/>
<path d="M96.5 665.5L104.5 695.5H96.5V665.5Z" fill="#E5E2DD" stroke="#E5E2DD"/>
<path d="M96.5 648.5H69.5L96.5 694V648.5Z" fill="#E5E2DD" stroke="#E5E2DD"/>
<path d="M90 696.5L98 719.5V720H97.5H70.5V696.5H90Z" fill="#453E40" stroke="#453E40"/>
<path d="M49.5 696.5L41.5 719.5V720H42H69V696.5H49.5Z" fill="#453E40" stroke="#453E40"/>
<rect x="68" y="696" width="3" height="24" fill="#453E40"/>
<path d="M237.5 196V131C240.3 131 242 134.333 242.5 136L264.5 196H237.5Z" fill="white" stroke="white"/>
<path d="M236.5 196V131C233.7 131 232 134.333 231.5 136L209.5 196H236.5Z" fill="#E5E2DD" stroke="#E5E2DD"/>
<path d="M217 695.5L209 718.5V719H236.5V695.5H217Z" fill="#453E40"/>
<path d="M257.5 695.5L265.5 718.5V719H238V695.5H257.5Z" fill="#453E40"/>
<path d="M239 695H236V719H239V695Z" fill="#453E40"/>
<path d="M264.5 665.5L272.5 695.5H264.5V665.5Z" fill="white" stroke="white"/>
<path d="M265 648H209V696H265V648Z" fill="white"/>
<path d="M209.5 665.5L201.5 695.5H209.5V665.5Z" fill="#E5E2DD"/>
<path d="M209.5 648.5H236.5L209.5 694V648.5Z" fill="#E5E2DD"/>
<path d="M209.5 665.5L201.5 695.5H209.5V665.5Z" stroke="#E5E2DD"/>
<path d="M209.5 648.5H236.5L209.5 694V648.5Z" stroke="#E5E2DD"/>
<path d="M265 632H237V636H265V632Z" fill="#A83F3A"/>
<path d="M237 632H209V636H237V632Z" fill="#962A2F"/>
<path d="M237 464H209V620H237V464Z" fill="#E5E2DD"/>
<path d="M265 464H237V620H265V464Z" fill="white"/>
<path d="M237 200.5H209V240.5H237V200.5Z" fill="#E5E2DD"/>
<path d="M265 200.5H237V240.5H265V200.5Z" fill="white"/>
<path d="M265 196.5H237V200.5H265V196.5Z" fill="#E2DEDD"/>
<path d="M237 196.5H209V200.5H237V196.5Z" fill="#C1BCB8"/>
<path d="M265 240.5H237V244.5H265V240.5Z" fill="#453E40"/>
<path d="M237 240.5H209V244.5H237V240.5Z" fill="#393335"/>
<path d="M237 244.5H209V284.5H237V244.5Z" fill="#E5E2DD"/>
<path d="M265 244.5H237V284.5H265V244.5Z" fill="white"/>
<path d="M237 288.5H209V328.5H237V288.5Z" fill="#E5E2DD"/>
<path d="M265 288.5H237V328.5H265V288.5Z" fill="white"/>
<path d="M265 284.5H237V288.5H265V284.5Z" fill="#453E40"/>
<path d="M237 284.5H209V288.5H237V284.5Z" fill="#393335"/>
<path d="M237 420H209V460H237V420Z" fill="#E5E2DD"/>
<path d="M265 420H237V460H265V420Z" fill="white"/>
<path d="M265 328.5H237V332.5H265V328.5Z" fill="#E2DEDD"/>
<path d="M237 328.5H209V332.5H237V328.5Z" fill="#C1BCB8"/>
<path d="M237 332H209V372H237V332Z" fill="#E5E2DD"/>
<path d="M265 332H237V372H265V332Z" fill="white"/>
<path d="M237 376H209V416H237V376Z" fill="#E5E2DD"/>
<path d="M265 376H237V416H265V376Z" fill="white"/>
<path d="M265 372H237V376H265V372Z" fill="#453E40"/>
<path d="M237 372H209V376H237V372Z" fill="#393335"/>
<path d="M265 416H237V420H265V416Z" fill="#E2DEDD"/>
<path d="M237 416H209V420H237V416Z" fill="#C1BCB8"/>
<path d="M265 460H237V464H265V460Z" fill="#453E40"/>
<path d="M237 460H209V464H237V460Z" fill="#393335"/>
<path d="M237 623H209V632H237V623Z" fill="#E5E2DD"/>
<path d="M237 636H209V644H237V636Z" fill="#E5E2DD"/>
<path d="M265 624H237V632H265V624Z" fill="white"/>
<path d="M265 636H237V644H265V636Z" fill="white"/>
<path d="M265 620H237V624H265V620Z" fill="#A83F3A"/>
<path d="M237 620H209V624H237V620Z" fill="#962A2F"/>
<path d="M265 644H237V648H265V644Z" fill="#A83F3A"/>
<path d="M237 644H209V648H237V644Z" fill="#962A2F"/>
<path d="M265 660H237V664H265V660Z" fill="#A83F3A"/>
<path d="M237 660H209V664H237V660Z" fill="#962A2F"/>
<path d="M105 100H153V164H105V100Z" fill="#F05253"/>
<path d="M153 100H201V164H153V100Z" fill="#D94140"/>
<path d="M105 248H153V377H105V248Z" fill="#F05253"/>
<path d="M153 248H201V377H153V248Z" fill="#D94140"/>
<path d="M153 100.5H105.5C111.9 55.7 139.833 14.8333 153 0V100.5Z" fill="#F05253"/>
<path d="M153 100.5H200.5C194.1 55.7 166.167 14.8333 153 0V100.5Z" fill="#D94140"/>
<path d="M101 164H105V248H101V164Z" fill="#F05253"/>
<path d="M105 164H109V248H105V164Z" fill="#D8403F"/>
<path d="M109 164H113V248H109V164Z" fill="#F05253"/>
<path d="M113 164H117V248H113V164Z" fill="#D8403F"/>
<path d="M117 164H121V248H117V164Z" fill="#F05253"/>
<path d="M121 164H125V248H121V164Z" fill="#D8403F"/>
<path d="M125 164H129V248H125V164Z" fill="#F05253"/>
<path d="M129 164H133V248H129V164Z" fill="#D8403F"/>
<path d="M133 164H137V248H133V164Z" fill="#F05253"/>
<path d="M137 164H141V248H137V164Z" fill="#D8403F"/>
<path d="M141 164H145V248H141V164Z" fill="#F05253"/>
<path d="M145 164H149V248H145V164Z" fill="#D8403F"/>
<path d="M149 164H153V248H149V164Z" fill="#F05253"/>
<path d="M153 164H157V248H153V164Z" fill="#D8403F"/>
<path d="M157 164H161V248H157V164Z" fill="#F05253"/>
<path d="M161 164H165V248H161V164Z" fill="#D8403F"/>
<path d="M165 164H169V248H165V164Z" fill="#F05253"/>
<path d="M169 164H173V248H169V164Z" fill="#D8403F"/>
<path d="M173 164H177V248H173V164Z" fill="#F05253"/>
<path d="M177 164H181V248H177V164Z" fill="#D8403F"/>
<path d="M181 164H185V248H181V164Z" fill="#F05253"/>
<path d="M185 164H189V248H185V164Z" fill="#D8403F"/>
<path d="M189 164H193V248H189V164Z" fill="#F05253"/>
<path d="M193 164H197V248H193V164Z" fill="#D8403F"/>
<path d="M197 164H201V248H197V164Z" fill="#F05253"/>
<path d="M201 164H205V248H201V164Z" fill="#D8403F"/>
<path d="M97 196H101V205H97V196Z" fill="#504643"/>
<path d="M205 196H209V205H205V196Z" fill="#504643"/>
<ellipse cx="151.5" cy="649.5" rx="13.5" ry="3.5" fill="#463E44"/>
<path d="M144 631.5L138 622H151.5L151 646C142.399 645.669 139.133 647.367 138.26 648.719L138 649.5C138 649.269 138.078 649.002 138.26 648.719L144 631.5Z" fill="white"/>
<path d="M138 622L144 631.5L138 649.5C138 648.167 140.6 645.6 151 646L151.5 622H138Z" stroke="white"/>
<path d="M158.5 631.5L164.5 622H151L151.5 646C160.101 645.669 163.367 647.367 164.24 648.719L164.5 649.5C164.5 649.269 164.422 649.002 164.24 648.719L158.5 631.5Z" fill="#E5E2DD"/>
<path d="M164.5 622L158.5 631.5L164.5 649.5C164.5 648.167 161.9 645.6 151.5 646L151 622H164.5Z" stroke="#E5E2DD"/>
<path d="M145.077 622.78H133.37L128.688 654.095L141.175 659.314L138.834 637.568L145.077 622.78Z" fill="#E5E2DD"/>
<path fill-rule="evenodd" clip-rule="evenodd" d="M132.698 622H146.254L139.631 637.685L142.092 660.543L127.826 654.581L132.698 622ZM134.043 623.561L129.549 653.609L140.258 658.085L138.036 637.45L143.9 623.561H134.043Z" fill="#E5E2DD"/>
<path d="M125.566 634.958L121.663 622.78H132.59L128.688 653.225C122.444 649.746 117.761 653.515 116.2 655.835L125.566 634.958Z" fill="white"/>
<path fill-rule="evenodd" clip-rule="evenodd" d="M120.594 622H133.477L129.315 654.468L128.308 653.907C125.388 652.279 122.894 652.368 120.96 653.087C118.99 653.818 117.552 655.224 116.848 656.27L115.488 655.515L124.731 634.912L120.594 622ZM122.733 623.561L126.4 635.005L118.521 652.567C119.093 652.204 119.727 651.88 120.416 651.624C122.532 650.838 125.14 650.711 128.054 652.031L131.703 623.561H122.733Z" fill="white"/>
<path d="M116.2 656.704C120.103 653.805 130.561 650.441 141.175 660.184C134.931 661.054 121.195 661.576 116.2 656.704Z" fill="#463E44"/>
<path fill-rule="evenodd" clip-rule="evenodd" d="M117.49 656.778C118.554 657.568 119.939 658.196 121.555 658.677C123.572 659.279 125.893 659.637 128.279 659.819C132.234 660.121 136.304 659.937 139.334 659.62C130.204 652.158 121.485 654.344 117.49 656.778ZM115.735 656.078C119.884 652.995 130.766 649.57 141.703 659.609L142.922 660.728L141.283 660.957C138.118 661.398 133.066 661.75 128.16 661.375C125.706 661.188 123.267 660.817 121.109 660.173C118.959 659.532 117.03 658.604 115.655 657.263L115 656.624L115.735 656.078Z" fill="#463E44"/>
<path d="M160.177 621.78H171.884L176.566 653.095L164.079 658.314L166.42 636.568L160.177 621.78Z" fill="#E5E2DD"/>
<path fill-rule="evenodd" clip-rule="evenodd" d="M172.556 621H159L165.623 636.685L163.162 659.543L177.428 653.581L172.556 621ZM171.211 622.561L175.705 652.609L164.996 657.085L167.218 636.45L161.354 622.561H171.211Z" fill="#E5E2DD"/>
<path d="M179.688 633.958L183.59 621.78H172.664L176.566 652.225C182.81 648.746 187.493 652.515 189.054 654.835L179.688 633.958Z" fill="white"/>
<path fill-rule="evenodd" clip-rule="evenodd" d="M184.66 621H171.777L175.939 653.468L176.946 652.907C179.866 651.279 182.36 651.368 184.294 652.087C186.264 652.818 187.702 654.224 188.406 655.27L189.766 654.515L180.523 633.912L184.66 621ZM182.521 622.561L178.854 634.005L186.732 651.567C186.16 651.204 185.527 650.88 184.838 650.624C182.722 649.838 180.114 649.711 177.2 651.031L173.551 622.561H182.521Z" fill="white"/>
<path d="M189.054 655.704C185.151 652.805 174.693 649.441 164.079 659.184C170.323 660.054 184.059 660.576 189.054 655.704Z" fill="#463E44"/>
<path fill-rule="evenodd" clip-rule="evenodd" d="M187.764 655.778C186.7 656.568 185.315 657.196 183.699 657.677C181.682 658.279 179.36 658.637 176.975 658.819C173.019 659.121 168.95 658.937 165.92 658.62C175.05 651.158 183.769 653.344 187.764 655.778ZM189.519 655.078C185.37 651.995 174.488 648.57 163.551 658.609L162.332 659.728L163.971 659.957C167.136 660.398 172.188 660.75 177.094 660.375C179.548 660.188 181.987 659.817 184.145 659.173C186.295 658.532 188.224 657.604 189.598 656.263L190.254 655.624L189.519 655.078Z" fill="#463E44"/>
<path d="M134.5 622H127L124 642.062L132 645.405L130.5 631.474L134.5 622Z" fill="#E5E2DD" stroke="#E5E2DD"/>
<path d="M122 629.802L119.5 622H126.5L124 641.504C120 639.275 117 641.69 116 643.176L122 629.802Z" fill="white" stroke="white"/>
<path d="M116 643.733C118.5 641.876 125.2 639.721 132 645.963C128 646.52 119.2 646.854 116 643.733Z" fill="#463E44" stroke="#463E44"/>
<path d="M170.985 622H178.485L181.485 642.062L173.485 645.405L174.985 631.474L170.985 622Z" fill="#E5E2DD"/>
<path fill-rule="evenodd" clip-rule="evenodd" d="M178.916 621.5H170.231L174.474 631.549L172.897 646.193L182.037 642.373L178.916 621.5ZM178.054 622.5L180.933 641.75L174.073 644.618L175.496 631.398L171.739 622.5H178.054Z" fill="#E5E2DD"/>
<path d="M183.485 629.802L185.985 622H178.985L181.485 641.504C185.485 639.275 188.485 641.69 189.485 643.176L183.485 629.802Z" fill="white"/>
<path fill-rule="evenodd" clip-rule="evenodd" d="M186.67 621.5H178.417L181.083 642.301L181.728 641.941C183.599 640.899 185.196 640.955 186.436 641.416C187.698 641.885 188.619 642.785 189.07 643.455L189.941 642.972L184.019 629.772L186.67 621.5ZM185.3 622.5L182.95 629.832L187.998 641.083C187.631 640.85 187.226 640.643 186.784 640.478C185.429 639.975 183.758 639.894 181.891 640.74L179.553 622.5H185.3Z" fill="white"/>
<path d="M189.485 643.733C186.985 641.876 180.285 639.721 173.485 645.963C177.485 646.52 186.285 646.854 189.485 643.733Z" fill="#463E44"/>
<path fill-rule="evenodd" clip-rule="evenodd" d="M188.658 643.78C187.977 644.287 187.09 644.689 186.055 644.998C184.762 645.383 183.275 645.612 181.747 645.729C179.213 645.922 176.605 645.804 174.664 645.602C180.513 640.821 186.1 642.221 188.658 643.78ZM189.783 643.332C187.125 641.357 180.154 639.163 173.147 645.594L172.365 646.311L173.416 646.458C175.444 646.74 178.68 646.966 181.823 646.726C183.395 646.606 184.958 646.368 186.34 645.956C187.718 645.545 188.953 644.95 189.834 644.091L190.254 643.682L189.783 643.332Z" fill="#463E44"/>
<path d="M100 413C103.2 394.6 115 329 120.5 298.5H153V585.5H1.5C1.78814e-06 552 27.5 532.5 27.5 531C68 496.5 70.5 489 70.5 488.5C91 454.5 96 436 100 413Z" fill="#514B4D"/>
<path d="M206.441 413C203.241 394.6 191.441 329 185.941 298.5H153.441V585.5H304.941C306.441 552 278.941 532.5 278.941 531C238.441 496.5 235.941 489 235.941 488.5C215.441 454.5 210.441 436 206.441 413Z" fill="#514B4D"/>
<path d="M100 413C103.2 394.6 115 329 120.5 298.5H153V585.5H1.5C1.78814e-06 552 27.5 532.5 27.5 531C68 496.5 70.5 489 70.5 488.5C91 454.5 96 436 100 413Z" stroke="#514B4D"/>
<path d="M206.441 413C203.241 394.6 191.441 329 185.941 298.5H153.441V585.5H304.941C306.441 552 278.941 532.5 278.941 531C238.441 496.5 235.941 489 235.941 488.5C215.441 454.5 210.441 436 206.441 413Z" stroke="#514B4D"/>
<path d="M230.986 502C208.986 477.2 199.486 431.333 197.486 411.5H183.986V580.5H295.986C296.386 568.5 287.82 556.5 283.486 552C257.886 530.4 237.82 509.667 230.986 502Z" fill="#CBC4BE"/>
<path d="M198.486 396H152.486V580H198.486V396Z" fill="#CBC4BE"/>
<path d="M183.486 580H152.486V581H183.486V580Z" fill="#CBC4BE"/>
<path d="M295.486 580H180.486V581H295.486V580Z" fill="#CBC4BE"/>
<path d="M74.5 502C96.5 477.2 106 431.333 108 411.5H121.5V580.5H9.49998C9.09998 568.5 17.6666 556.5 22 552C47.6 530.4 67.6667 509.667 74.5 502Z" fill="#FAF9F7"/>
<path d="M107 396H153V580H107V396Z" fill="#FAF9F7"/>
<path d="M122 580H153V581H122V580Z" fill="#FAF9F7"/>
<path d="M10 580H125V581H10V580Z" fill="#FAF9F7"/>
<rect x="1" y="580" width="304" height="8" fill="#514B4D"/>
<path d="M1 588H49V612L1 604V588Z" fill="#514B4D"/>
<path d="M5 588H45V607L24 604L5 601V588Z" fill="white"/>
<path d="M305 588H257V612L305 604V588Z" fill="#514B4D"/>
<path d="M301 588H261V607L282 604L301 601V588Z" fill="#DCD7D0"/>
<path d="M53 588H108L105 619L53 612V588Z" fill="#514B4D"/>
<path d="M57 588H105V615.5L57 609V588Z" fill="white"/>
<path d="M253 588H198L201 619L253 612V588Z" fill="#514B4D"/>
<path d="M249 588H201V615.5L249 609V588Z" fill="#DCD7D0"/>
<path d="M105 581C105 567.745 115.745 557 129 557V557V622H105V581Z" fill="white"/>
<path d="M149 577C149 565.954 140.046 557 129 557V557V622H149V577Z" fill="#DBD8D1"/>
<path d="M201 581C201 567.745 190.255 557 177 557V557V622H201V581Z" fill="white"/>
<path d="M157 577C157 565.954 165.954 557 177 557V557V622H157V577Z" fill="#DBD8D1"/>
<path d="M139.5 560C146.7 565.6 149.167 571 149.5 573H153V560H139.5Z" fill="#4E484A" stroke="#4E484A"/>
<path d="M166.5 560C159.3 565.6 156.833 571 156.5 573H153V560H166.5Z" fill="#4E484A" stroke="#4E484A"/>
<rect x="149" y="570" width="8" height="52" fill="#4E484A"/>
<path d="M153 636L149.5 622H156.5L153 636Z" fill="#4E484A" stroke="#4E484A"/>
<path d="M152.5 208.5C136.5 216.5 125.167 266.5 121.5 290.5H152.5V208.5Z" fill="white" stroke="white"/>
<path d="M153.5 208.5C169.5 216.5 180.833 266.5 184.5 290.5H153.5V208.5Z" fill="#DBD8D1" stroke="#DBD8D1"/>
<path d="M121.5 290.5V560H152.5V290.5H121.5Z" fill="white" stroke="white"/>
<path d="M153.5 290.5V560H184.5V290.5H153.5Z" fill="#DBD8D1" stroke="#DBD8D1"/>
<path d="M157 280.5H166.5L176.5 288V299.5V300H169V295L162 288H157" stroke="#4E484A"/>
<path d="M166 280H157V288H166V280Z" fill="#4E484A"/>
<path d="M177 288H169V300H177V288Z" fill="#4E484A"/>
<path d="M173 285H165V291H173V285Z" fill="#4E484A"/>
<path d="M168 281H165V286H168V281Z" fill="#4E484A"/>
<path d="M172 287H167V293H172V287Z" fill="#4E484A"/>
<path d="M175.5 288C174.333 287 171.2 284.4 168 282V288H175.5Z" fill="#4E484A"/>
<path fill-rule="evenodd" clip-rule="evenodd" d="M167.5 281V288.5H176.852L175.825 287.62C174.653 286.615 171.511 284.008 168.3 281.6L167.5 281ZM174.131 287.5H168.5V283.005C170.697 284.68 172.786 286.379 174.131 287.5Z" fill="#4E484A"/>
<path d="M162.529 288C163.603 289.098 166.498 291.962 169.475 294.633L170 288.656L162.529 288Z" fill="#4E484A"/>
<path fill-rule="evenodd" clip-rule="evenodd" d="M169.886 295.673L170.542 288.201L161.226 287.384L162.171 288.35C163.252 289.454 166.154 292.325 169.142 295.005L169.886 295.673ZM163.848 288.618L169.458 289.11L169.065 293.588C167.023 291.727 165.091 289.853 163.848 288.618Z" fill="#4E484A"/>
<path d="M149 280.5H139.5L129.5 288V299.5V300H137V295L144 288H149" stroke="#4E484A"/>
<path d="M140 280H149V288H140V280Z" fill="#4E484A"/>
<path d="M129 288H137V300H129V288Z" fill="#4E484A"/>
<path d="M133 285H141V291H133V285Z" fill="#4E484A"/>
<path d="M138 281H141V286H138V281Z" fill="#4E484A"/>
<path d="M134 287H139V293H134V287Z" fill="#4E484A"/>
<path d="M130.5 288C131.667 287 134.8 284.4 138 282V288H130.5Z" fill="#4E484A"/>
<path fill-rule="evenodd" clip-rule="evenodd" d="M138.5 281V288.5H129.148L130.175 287.62C131.347 286.615 134.489 284.008 137.7 281.6L138.5 281ZM131.869 287.5H137.5V283.005C135.303 284.68 133.214 286.379 131.869 287.5Z" fill="#4E484A"/>
<path d="M143.471 288C142.397 289.098 139.502 291.962 136.525 294.633L136 288.656L143.471 288Z" fill="#4E484A"/>
<path fill-rule="evenodd" clip-rule="evenodd" d="M136.114 295.673L135.458 288.201L144.774 287.384L143.829 288.35C142.748 289.454 139.846 292.325 136.858 295.005L136.114 295.673ZM142.152 288.618L136.542 289.11L136.935 293.588C138.977 291.727 140.909 289.853 142.152 288.618Z" fill="#4E484A"/>
<rect x="105" y="622" width="12" height="27" fill="white"/>
<ellipse cx="111" cy="627.192" rx="2.57143" ry="3.11538" fill="#514B4D"/>
<ellipse cx="111" cy="635.5" rx="2.57143" ry="3.11538" fill="#514B4D"/>
<ellipse cx="111" cy="643.808" rx="2.57143" ry="3.11538" fill="#514B4D"/>
<rect x="189" y="622" width="12" height="27" fill="white"/>
<ellipse cx="195" cy="627.192" rx="2.57143" ry="3.11538" fill="#514B4D"/>
<ellipse cx="195" cy="635.5" rx="2.57143" ry="3.11538" fill="#514B4D"/>
<ellipse cx="195" cy="643.808" rx="2.57143" ry="3.11538" fill="#514B4D"/>
</svg>
